Coordinates
version=1
nRows=18
nColumns=24
inDegrees=yes

Units are S.I. units (second, meters, Newtons, ...)
If the header above contains a line with 'inDegrees', this indicates whether rotational values are in degrees (yes) or radians (no).

endheader
time	pelvis_tilt	pelvis_list	pelvis_rotation	pelvis_tx	pelvis_ty	pelvis_tz	hip_flexion_r	hip_adduction_r	hip_rotation_r	knee_angle_r	ankle_angle_r	subtalar_angle_r	mtp_angle_r	hip_flexion_l	hip_adduction_l	hip_rotation_l	knee_angle_l	ankle_angle_l	subtalar_angle_l	mtp_angle_l	lumbar_extension	lumbar_bending	lumbar_rotation
1.0	5.023851066469758	0.048277027237269586	0.1831484600641697	0.5937471239393919	1.0480863030420273	0.045991899242769	-3.607387541498576	1.8360544831072971	-3.6269638589293893	-11.373312772282949	8.275784015221767	-1.1740866444767037e-06	0.0	19.060088536222164	-2.9238022975345217	-4.3362973291735845	-55.48071752274975	1.554846189983336	-2.0866675162397245e-06	0.0	-16.721251737553633	0.9232095075376198	1.3021705185014794
1.017	4.876838499635768	-0.17658177357008428	-0.09628012054075168	0.5893152503953758	1.043137803203251	0.04744685337394319	-5.081140243374299	2.1990421150559984	-3.4472950652870553	-10.281048322553385	8.542985204334617	-1.1893195129010006e-06	0.0	19.86361692032443	-3.307067294374116	-4.974362980259794	-50.57881447767938	1.690240044912028	-3.104607357284838e-06	0.0	-16.54468755807221	0.9946657269604944	1.7720762572654158
1.033	5.085878067898338	-0.3961779094474224	-0.18247197973500237	0.588258413752925	1.044267027978684	0.04815234950704081	-6.728779844490937	2.5053364204313944	-3.3861065029541195	-9.475168489487949	8.86397976303781	-1.3039105133330405e-06	0.0	19.996631658350523	-3.670428684994547	-5.844803015465726	-45.62694118338231	1.4218677331278613	-4.529503376017893e-06	0.0	-17.010147696752036	1.1196839310362707	1.8863178342776659
1.05	5.0160838039362785	-0.9361720327020696	-0.4172928656837301	0.5857741527418553	1.0420361068409878	0.04905541016252924	-8.072528836879128	3.13073156736131	-3.1819199639604068	-8.680686821045791	9.13454111050421	-1.1366160608884063e-06	0.0	20.296485946989936	-4.426315723362665	-6.97212542947304	-40.358386441956476	1.0010157102531956	-5.576605776693252e-06	0.0	-16.93975004605241	1.5790104071490165	2.2516048904750194
1.067	4.936777041368622	-1.4295412320459728	-0.7013830258785652	0.5840291869854944	1.0406384043665682	0.0495270378425279	-9.450895699430548	3.6365888624684453	-2.726721302351692	-7.989483609047779	9.541686789330658	-1.2510402829754637e-06	0.0	20.321848687494096	-5.009583571616604	-8.386888844565338	-34.285070132983535	0.26552000000987314	-6.470701709832614e-06	0.0	-16.959537930988837	1.9489634268165534	2.5844635437761037
1.083	4.809399892624341	-1.896550344843298	-0.9651246719814967	0.58251443715905	1.0381195196267627	0.04992176460382504	-10.831726082864142	4.095801467388441	-2.2709160471812244	-7.128883221324783	9.833773221721232	-1.160099574526514e-06	0.0	20.29947830683076	-5.416450887943234	-9.544470920730975	-28.623307522603312	-0.44832219737014795	-6.367641849599795e-06	0.0	-16.901762836138598	2.238145599242605	2.8583692940352643
1.1	4.650258172065349	-2.4309568368348344	-1.1816978581470252	0.5814240430411068	1.03582385969202	0.050286511066109256	-12.095299559761678	4.617541993406899	-1.7712987060530094	-6.506449757061072	10.20368422703583	-9.937186759708706e-07	0.0	20.21774133833183	-5.687728148386791	-10.16619259869794	-22.935038497397823	-1.0986198832617815	-5.830102536663446e-06	0.0	-16.764452435178352	2.7426894438089158	3.12715887007711
1.117	4.422304026677043	-2.9359902113841905	-1.6067151710241716	0.5798031719642344	1.0324304714930346	0.0503871408930753	-13.271385727635312	5.018368495293956	-0.9650470820465376	-6.097116571167525	10.755683374722516	-1.036250304445372e-06	0.0	20.13759633359769	-5.814867593194755	-10.251273991446304	-17.075711881746997	-1.5454655655257654	-4.729239818224007e-06	0.0	-16.68418479326816	2.9998312526031237	3.3255833009306714
1.133	4.454479958151488	-3.5149611323911922	-1.987130381561464	0.5786098050843085	1.0297672308874168	0.05004175773393382	-14.529802754166955	5.439321407435111	-0.19997549328393963	-5.921013885309087	11.27160072352749	-9.567520662863681e-07	0.0	19.71975907804806	-5.978071312432339	-9.585839805786366	-11.951197845513391	-1.7106277205379299	-3.6542223051475968e-06	0.0	-16.773425375415883	3.492722826923479	3.9779905980340597
1.15	4.430021340449697	-3.8508016781515733	-2.1585549417494168	0.5783110564977737	1.0265012224561072	0.04971102200553821	-15.959189137120807	5.665128143791481	0.2591908850479913	-5.403675024000542	11.685747050941906	-9.142376378456603e-07	0.0	19.281079023886978	-5.891886987957738	-8.333076379383908	-7.305605315455571	-1.6554731431107783	-2.6688129472549343e-06	0.0	-16.857402873942977	3.614724920874162	3.778090047728398
1.167	4.507818584017767	-4.259231238168689	-2.7513112428436233	0.5776022355424222	1.0234077097737528	0.04945468333728329	-17.300881578402965	5.775280369564959	1.0213143334279893	-5.432243852061979	12.242685244438416	-7.875485440191531e-07	0.0	18.849431101771316	-6.08331643044127	-7.228278656254516	-3.6385885793907122	-1.2668005165127814	-1.7031419410749987e-06	0.0	-17.02317592993483	3.7355742480315173	4.367711946810594
1.183	4.497876645452756	-4.426045553168259	-3.092966103121215	0.5777162392955542	1.0204367196415116	0.04896464536368649	-18.504861751521045	5.6950797047401585	1.4760341682694624	-5.41248753507738	12.658942275975482	-6.395806545881122e-07	0.0	18.575175442289748	-6.047806415653555	-6.240662548826681	-1.2635946408707008	-0.9050717079858741	-1.1299195433919832e-06	0.0	-16.959455009362664	3.6444597905420735	4.416998639524256
1.2	4.457198129127812	-4.554998146922333	-3.349582853772876	0.5775684951313028	1.0178745522829595	0.04836212419258976	-19.417638914870967	5.594845271941496	1.806383514319184	-5.8638815027401545	13.077695877199064	-3.370365031911345e-07	0.0	18.68023208576852	-6.0173388284015115	-5.368023341536887	-0.4751097021998886	-0.530843197263287	-7.855939547515224e-07	0.0	-17.020375290164793	3.4242799275880547	4.272842672722537
1.217	4.64192457833922	-4.5335940829036625	-3.5883456888832925	0.5774558978215046	1.0158206661674687	0.04734052492114765	-20.37572182189525	5.287245892608703	2.1931491536068655	-6.816753808120361	13.568256034763664	-4.3376514383844735e-08	0.0	18.776143597648584	-5.822238358908924	-4.6566920173809025	-1.149261748049246	-0.3462546909912968	-8.64002709096118e-07	0.0	-17.209874585305563	3.0247394487686035	4.325918911846307
1.233	4.620417273498437	-4.4033160386367625	-4.171523256546877	0.5783948959581973	1.014301593575853	0.04608217198606918	-20.926388618396267	4.733891551521617	2.8376080341008456	-8.025721811010149	13.909042945365746	2.9834099771491103e-07	0.0	18.956874257034027	-5.613759496046647	-4.531459278370504	-2.590370901636071	-0.610157979214718	-1.0403761429370644e-06	0.0	-17.105316079245206	2.5163490120647745	4.414439808869796
1.25	4.504982692665733	-4.1173050018206405	-4.4287486793103525	0.5805391825966768	1.0129379307846127	0.04415143028224421	-21.252855736467463	4.126251604098204	3.13294392301744	-9.587486153386495	14.17269676114725	7.08825964592428e-07	0.0	19.406214546568894	-5.156707509926563	-4.200171394241668	-4.929784202372857	-1.1683798314873812	-1.331488433752251e-06	0.0	-16.648301112464043	1.9732170815217718	4.46443522419734
1.267	4.301632929839047	-4.093748175002877	-4.519412871202658	0.5818786274908447	1.0117182006565537	0.04258227928523673	-21.05523685443779	3.9170892330546754	3.3335926447189617	-12.0591197233566	14.314573037731993	1.1534756900312894e-06	0.0	20.024991161686884	-4.976190965356985	-3.7879856357042607	-7.64864891281454	-2.2542724759448243	-1.6605442634894338e-06	0.0	-16.33638054405111	1.550435728127631	4.248002849506884
1.283	4.117712087806908	-4.121703745277758	-4.7837161838466375	0.5834691558052691	1.0111632505634849	0.041182633190324044	-20.74208022833076	3.6948714863573118	3.6057143917501397	-14.59753514680387	14.050064503381925	1.6921378787353187e-06	0.0	20.47928872116972	-4.9522565953384685	-3.7110506867920834	-10.189457667775443	-3.2303491552037777	-1.8502288607868042e-06	0.0	-16.039093579325673	1.1098608039762143	4.25327431834138
